<?xml version="1.0" encoding="UTF-8" standalone="no"?>
<svg
   viewBox="91.56700000000001 45.075 205.964 143.75"
   width="205.964"
   height="143.75"
   transform="rotate(3)"
   version="1.1"
   id="svg100"
   sodipodi:docname="sigr.svg"
   inkscape:version="1.3.2 (091e20e, 2023-11-25)"
   xmlns:inkscape="http://www.inkscape.org/namespaces/inkscape"
   xmlns:sodipodi="http://sodipodi.sourceforge.net/DTD/sodipodi-0.dtd"
   xmlns="http://www.w3.org/2000/svg"
   xmlns:svg="http://www.w3.org/2000/svg">
  <defs
     id="defs100" />
  <sodipodi:namedview
     id="namedview100"
     pagecolor="#ffffff"
     bordercolor="#000000"
     borderopacity="0.25"
     inkscape:showpageshadow="2"
     inkscape:pageopacity="0.0"
     inkscape:pagecheckerboard="0"
     inkscape:deskcolor="#d1d1d1"
     showgrid="false"
     inkscape:zoom="2.4298567"
     inkscape:cx="70.168746"
     inkscape:cy="98.565482"
     inkscape:window-width="1472"
     inkscape:window-height="882"
     inkscape:window-x="20"
     inkscape:window-y="52"
     inkscape:window-maximized="0"
     inkscape:current-layer="svg100" />
  <path
     d="m 96,124 c 0.298487,-1.67353 0.66947,-3.33277 1,-5"
     stroke-width="4.433"
     stroke="#000000"
     fill="none"
     stroke-linecap="round"
     id="path1" />
  <path
     d="m 97,119 c 0.07908,-3.10722 1.320242,-6.00656 2,-9"
     stroke-width="3.785"
     stroke="#000000"
     fill="none"
     stroke-linecap="round"
     id="path2" />
  <path
     d="m 99,110 c 0.892095,-2.54894 2.18537,-4.98474 4,-7"
     stroke-width="3.241"
     stroke="#000000"
     fill="none"
     stroke-linecap="round"
     id="path3" />
  <path
     d="m 103,103 c 0.92657,-2.82339 3.18526,-5.060397 6,-6"
     stroke-width="3.485"
     stroke="#000000"
     fill="none"
     stroke-linecap="round"
     id="path4" />
  <path
     d="m 109,97 c 3.29065,3.96965 5.61278,8.81164 6,14"
     stroke-width="3.805"
     stroke="#000000"
     fill="none"
     stroke-linecap="round"
     id="path5" />
  <path
     d="m 115,111 c 0.32607,3.66409 1.6235,7.29152 1,11"
     stroke-width="2.981"
     stroke="#000000"
     fill="none"
     stroke-linecap="round"
     id="path6" />
  <path
     d="m 116,122 c 0.60182,3.97396 0.68129,7.99943 1,12"
     stroke-width="2.729"
     stroke="#000000"
     fill="none"
     stroke-linecap="round"
     id="path7" />
  <path
     d="m 117,134 c -0.009,5.33323 0.26953,10.66913 0,16"
     stroke-width="2.375"
     stroke="#000000"
     fill="none"
     stroke-linecap="round"
     id="path8" />
  <path
     d="m 117,150 c 0.27992,5.33036 -0.01,10.66715 0,16"
     stroke-width="2.335"
     stroke="#000000"
     fill="none"
     stroke-linecap="round"
     id="path9" />
  <path
     d="m 117,166 c -0.29672,3.66923 -0.38147,7.36374 -1,11"
     stroke-width="2.597"
     stroke="#000000"
     fill="none"
     stroke-linecap="round"
     id="path10" />
  <path
     d="m 116,177 c -0.31096,3.00229 -0.55832,6.01287 -1,9"
     stroke-width="2.825"
     stroke="#000000"
     fill="none"
     stroke-linecap="round"
     id="path11" />
  <path
     d="m 115,186 c 0.52192,-4.65234 0.52505,-9.34377 1,-14"
     stroke-width="3.472"
     stroke="#000000"
     fill="none"
     stroke-linecap="round"
     id="path12" />
  <path
     d="m 116,172 c -0.2257,-4.33234 0.23312,-8.66785 0,-13"
     stroke-width="2.822"
     stroke="#000000"
     fill="none"
     stroke-linecap="round"
     id="path13" />
  <path
     d="m 116,159 c 0.61413,-4.9796 0.44033,-10.0159 1,-15"
     stroke-width="2.394"
     stroke="#000000"
     fill="none"
     stroke-linecap="round"
     id="path14" />
  <path
     d="m 117,144 c -0.4454,-6.99621 0.30057,-14.00129 0,-21"
     stroke-width="2.25"
     stroke="#000000"
     fill="none"
     stroke-linecap="round"
     id="path15" />
  <path
     d="m 117,123 c 0.0915,-8.69967 0.92617,-17.37264 2,-26"
     stroke-width="2.25"
     stroke="#000000"
     fill="none"
     stroke-linecap="round"
     id="path16" />
  <path
     d="m 119,97 c 0.78673,-4.706043 1.43632,-9.470869 3,-14"
     stroke-width="2.25"
     stroke="#000000"
     fill="none"
     stroke-linecap="round"
     id="path17" />
  <path
     d="m 122,83 c 0.12831,-2.121637 0.66669,-4.296092 2,-6"
     stroke-width="2.865"
     stroke="#000000"
     fill="none"
     stroke-linecap="round"
     id="path18" />
  <path
     d="m 124,77 c 1.80196,1.900885 2.48174,4.513592 3,7"
     stroke-width="3.516"
     stroke="#000000"
     fill="none"
     stroke-linecap="round"
     id="path19" />
  <path
     d="m 127,84 c 1.99831,5.486852 3.06759,11.253071 4,17"
     stroke-width="2.496"
     stroke="#000000"
     fill="none"
     stroke-linecap="round"
     id="path20" />
  <path
     d="m 131,101 c 0.62262,8.00334 2.05245,15.95161 2,24"
     stroke-width="2.25"
     stroke="#000000"
     fill="none"
     stroke-linecap="round"
     id="path21" />
  <path
     d="m 133,125 c 0.70695,7.66313 1.31163,15.33523 2,23"
     stroke-width="2.25"
     stroke="#000000"
     fill="none"
     stroke-linecap="round"
     id="path22" />
  <path
     d="m 135,148 c 0.53456,8.34354 1.37752,16.66317 2,25"
     stroke-width="2.25"
     stroke="#000000"
     fill="none"
     stroke-linecap="round"
     id="path23" />
  <path
     d="m 137,173 c 0.33204,2.66652 0.4399,5.36531 1,8"
     stroke-width="2.804"
     stroke="#000000"
     fill="none"
     stroke-linecap="round"
     id="path24" />
  <path
     d="m 138,181 c -0.43766,-5.32669 -0.50807,-10.67718 -1,-16"
     stroke-width="3.211"
     stroke="#000000"
     fill="none"
     stroke-linecap="round"
     id="path25" />
  <path
     d="m 137,165 c 0.006,-2.33329 -0.14408,-4.66798 0,-7"
     stroke-width="3.154"
     stroke="#000000"
     fill="none"
     stroke-linecap="round"
     id="path26" />
  <path
     d="m 137,158 c 0,-7 0,-14 0,-21"
     stroke-width="2.258"
     stroke="#000000"
     fill="none"
     stroke-linecap="round"
     id="path27" />
  <path
     d="m 137,137 c 0,-11.66667 0,-23.33333 0,-35"
     stroke-width="2.25"
     stroke="#000000"
     fill="none"
     stroke-linecap="round"
     id="path28" />
  <path
     d="m 137,102 c 0,-4.333333 0,-8.666667 0,-13"
     stroke-width="2.436"
     stroke="#000000"
     fill="none"
     stroke-linecap="round"
     id="path29" />
  <path
     d="m 137,89 c 0,-3.333333 0,-6.666667 0,-10"
     stroke-width="2.66"
     stroke="#000000"
     fill="none"
     stroke-linecap="round"
     id="path30" />
  <path
     d="m 137,79 c -0.3058,-1.981276 -0.417,-4.024494 0,-6"
     stroke-width="3.197"
     stroke="#000000"
     fill="none"
     stroke-linecap="round"
     id="path31" />
  <path
     d="m 137,73 c 1.87034,2.727036 3.02215,5.863862 4,9"
     stroke-width="3.571"
     stroke="#000000"
     fill="none"
     stroke-linecap="round"
     id="path32" />
  <path
     d="m 141,82 c 1.73803,4.538734 3.03259,9.23971 4,14"
     stroke-width="2.682"
     stroke="#000000"
     fill="none"
     stroke-linecap="round"
     id="path33" />
  <path
     d="m 145,96 c 1.48531,5.90649 2.41038,11.94216 3,18"
     stroke-width="2.302"
     stroke="#000000"
     fill="none"
     stroke-linecap="round"
     id="path34" />
  <path
     d="m 148,114 c 0.38276,9.68595 1.8481,19.30153 2,29"
     stroke-width="2.25"
     stroke="#000000"
     fill="none"
     stroke-linecap="round"
     id="path35" />
  <path
     d="m 150,143 c 0.54327,5.34729 1.06892,10.70298 2,16"
     stroke-width="2.25"
     stroke="#000000"
     fill="none"
     stroke-linecap="round"
     id="path36" />
  <path
     d="m 152,159 c 0.66986,3.99941 1.20115,8.02285 2,12"
     stroke-width="2.405"
     stroke="#000000"
     fill="none"
     stroke-linecap="round"
     id="path37" />
  <path
     d="m 154,171 c -0.52441,2.02622 -0.21393,4.27176 1,6"
     stroke-width="2.946"
     stroke="#000000"
     fill="none"
     stroke-linecap="round"
     id="path38" />
  <path
     d="m 155,177 c 4.00525,-2.52513 8.28888,-4.98156 11,-9"
     stroke-width="3.787"
     stroke="#000000"
     fill="none"
     stroke-linecap="round"
     id="path39" />
  <path
     d="m 166,168 c 2.18612,-1.79768 4.32808,-3.6984 6,-6"
     stroke-width="3.423"
     stroke="#000000"
     fill="none"
     stroke-linecap="round"
     id="path40" />
  <path
     d="m 172,162 c -2.25931,0.40164 -4.06661,1.88816 -6,3"
     stroke-width="3.88"
     stroke="#000000"
     fill="none"
     stroke-linecap="round"
     id="path41" />
  <path
     d="m 166,165 c -2.62654,2.05358 -5.55018,3.72098 -8,6"
     stroke-width="3.219"
     stroke="#000000"
     fill="none"
     stroke-linecap="round"
     id="path42" />
  <path
     d="m 158,171 c -2.64104,1.17135 -5.01927,2.90129 -7,5"
     stroke-width="3.095"
     stroke="#000000"
     fill="none"
     stroke-linecap="round"
     id="path43" />
  <path
     d="m 151,176 c 3.67567,-0.11294 7.45114,0.17411 11,-1"
     stroke-width="3.486"
     stroke="#000000"
     fill="none"
     stroke-linecap="round"
     id="path44" />
  <path
     d="m 162,175 c 2.99984,0.008 6.00269,-0.21226 9,0"
     stroke-width="3.087"
     stroke="#000000"
     fill="none"
     stroke-linecap="round"
     id="path45" />
  <path
     d="m 171,175 c 3.32592,-0.2788 6.67343,-0.25453 10,0"
     stroke-width="2.905"
     stroke="#000000"
     fill="none"
     stroke-linecap="round"
     id="path46" />
  <path
     d="m 181,175 c -5.30194,1.15435 -10.60574,2.35618 -16,3"
     stroke-width="3.365"
     stroke="#000000"
     fill="none"
     stroke-linecap="round"
     id="path47" />
  <path
     d="m 165,178 c -3.38107,0.39124 -6.72135,1.0924 -10,2"
     stroke-width="2.908"
     stroke="#000000"
     fill="none"
     stroke-linecap="round"
     id="path48" />
  <path
     d="m 155,180 c 3.99526,0.21516 8.00711,0.32053 12,0"
     stroke-width="3.378"
     stroke="#000000"
     fill="none"
     stroke-linecap="round"
     id="path49" />
  <path
     d="m 167,180 c 3.33333,0 6.66667,0 10,0"
     stroke-width="2.977"
     stroke="#000000"
     fill="none"
     stroke-linecap="round"
     id="path50" />
  <path
     d="m 177,180 c 2.64898,-0.38723 5.3493,-0.35026 8,0"
     stroke-width="3.196"
     stroke="#000000"
     fill="none"
     stroke-linecap="round"
     id="path51" />
  <path
     d="m 185,180 c -2.81337,-0.35036 -4.3002,2.90019 -7,3"
     stroke-width="3.68"
     stroke="#000000"
     fill="none"
     stroke-linecap="round"
     id="path52" />
  <path
     d="m 189,134 c 1.14883,-2.43492 2.67413,-4.66303 4,-7"
     stroke-width="4.237"
     stroke="#000000"
     fill="none"
     stroke-linecap="round"
     id="path53" />
  <path
     d="m 193,127 c 2.44491,-3.25493 4.49209,-6.79064 7,-10"
     stroke-width="2.958"
     stroke="#000000"
     fill="none"
     stroke-linecap="round"
     id="path54" />
  <path
     d="m 200,117 c 3.78947,-5.58601 7.43975,-11.2655 11,-17"
     stroke-width="2.25"
     stroke="#000000"
     fill="none"
     stroke-linecap="round"
     id="path55" />
  <path
     d="m 211,100 c 3.26824,-4.833895 6.1204,-9.930186 9,-15"
     stroke-width="2.258"
     stroke="#000000"
     fill="none"
     stroke-linecap="round"
     id="path56" />
  <path
     d="m 220,85 c 2.85945,-5.233444 5.61514,-10.530894 8,-16"
     stroke-width="2.25"
     stroke="#000000"
     fill="none"
     stroke-linecap="round"
     id="path57" />
  <path
     d="m 228,69 c 2.43486,-4.467942 4.19763,-9.25443 6,-14"
     stroke-width="2.306"
     stroke="#000000"
     fill="none"
     stroke-linecap="round"
     id="path58" />
  <path
     d="m 234,55 c 0.82941,-1.854757 1.60166,-3.949518 1,-6"
     stroke-width="3.181"
     stroke="#000000"
     fill="none"
     stroke-linecap="round"
     id="path59" />
  <path
     d="m 235,49 c -1.88008,0.549653 -3.73263,1.45766 -5,3"
     stroke-width="3.925"
     stroke="#000000"
     fill="none"
     stroke-linecap="round"
     id="path60" />
  <path
     d="m 230,52 c -2.33616,0.775688 -4.03471,2.622961 -6,4"
     stroke-width="3.76"
     stroke="#000000"
     fill="none"
     stroke-linecap="round"
     id="path61" />
  <path
     d="m 224,56 c -2.89877,2.502327 -5.19796,5.636158 -7,9"
     stroke-width="2.944"
     stroke="#000000"
     fill="none"
     stroke-linecap="round"
     id="path62" />
  <path
     d="m 217,65 c -3.89231,5.863476 -6.68123,12.378497 -9,19"
     stroke-width="2.805"
     stroke="#000000"
     fill="none"
     stroke-linecap="round"
     id="path63" />
  <path
     d="m 208,84 c -1.19974,4.950553 -2.98725,9.844146 -3,15"
     stroke-width="2.432"
     stroke="#000000"
     fill="none"
     stroke-linecap="round"
     id="path64" />
  <path
     d="m 205,99 c -1.72177,6.87854 -2.21038,13.97636 -3,21"
     stroke-width="2.25"
     stroke="#000000"
     fill="none"
     stroke-linecap="round"
     id="path65" />
  <path
     d="m 202,120 c -0.20919,7.32888 -0.7319,14.68268 0,22"
     stroke-width="2.25"
     stroke="#000000"
     fill="none"
     stroke-linecap="round"
     id="path66" />
  <path
     d="m 202,142 c 0.0326,7.67621 0.44189,15.34575 1,23"
     stroke-width="2.25"
     stroke="#000000"
     fill="none"
     stroke-linecap="round"
     id="path67" />
  <path
     d="m 203,165 c 0.50116,1.6354 0.33418,3.40496 1,5"
     stroke-width="2.771"
     stroke="#000000"
     fill="none"
     stroke-linecap="round"
     id="path68" />
  <path
     d="m 204,170 c 1.68015,2.69196 1.82505,6.00001 1,9"
     stroke-width="2.884"
     stroke="#000000"
     fill="none"
     stroke-linecap="round"
     id="path69" />
  <path
     d="m 205,179 c -4.83462,-1.49741 -10.17961,-2.39301 -14,-6"
     stroke-width="3.815"
     stroke="#000000"
     fill="none"
     stroke-linecap="round"
     id="path70" />
  <path
     d="m 191,173 c -1.80165,-0.25378 -3.46167,-1.06661 -5,-2"
     stroke-width="3.863"
     stroke="#000000"
     fill="none"
     stroke-linecap="round"
     id="path71" />
  <path
     d="m 186,171 c 2.2024,-0.95895 4.64402,-0.98548 7,-1"
     stroke-width="4.213"
     stroke="#000000"
     fill="none"
     stroke-linecap="round"
     id="path72" />
  <path
     d="m 193,170 c 4.6664,0.007 9.33718,-0.31467 14,0"
     stroke-width="2.756"
     stroke="#000000"
     fill="none"
     stroke-linecap="round"
     id="path73" />
  <path
     d="m 207,170 c 6.32563,-0.49259 12.66789,0.0221 19,0"
     stroke-width="2.282"
     stroke="#000000"
     fill="none"
     stroke-linecap="round"
     id="path74" />
  <path
     d="m 226,170 c 6.02584,0.38167 12.06197,0.86458 18,2"
     stroke-width="2.25"
     stroke="#000000"
     fill="none"
     stroke-linecap="round"
     id="path75" />
  <path
     d="m 244,172 c 5.38033,0.72255 10.72564,1.71336 16,3"
     stroke-width="2.255"
     stroke="#000000"
     fill="none"
     stroke-linecap="round"
     id="path76" />
  <path
     d="m 260,175 c 1.95587,0.79523 4.00434,1.32022 6,2"
     stroke-width="2.857"
     stroke="#000000"
     fill="none"
     stroke-linecap="round"
     id="path77" />
  <path
     d="m 266,177 c -6.38462,-3.59551 -13.31244,-6.05332 -20,-9"
     stroke-width="3.636"
     stroke="#000000"
     fill="none"
     stroke-linecap="round"
     id="path78" />
  <path
     d="m 246,168 c -4.48586,-1.88294 -9.1956,-3.23247 -14,-4"
     stroke-width="2.799"
     stroke="#000000"
     fill="none"
     stroke-linecap="round"
     id="path79" />
  <path
     d="m 232,164 c -7.23161,-1.61877 -14.60324,-2.58406 -22,-3"
     stroke-width="2.25"
     stroke="#000000"
     fill="none"
     stroke-linecap="round"
     id="path80" />
  <path
     d="m 210,161 c -1.66145,0.31205 -3.67112,-0.42272 -5,1"
     stroke-width="3.207"
     stroke="#000000"
     fill="none"
     stroke-linecap="round"
     id="path81" />
  <path
     d="m 205,162 c 1.33626,1.33151 3.2818,1.51289 5,2"
     stroke-width="3.881"
     stroke="#000000"
     fill="none"
     stroke-linecap="round"
     id="path82" />
  <path
     d="m 210,164 c 3.0567,0.40193 5.94342,1.5981 9,2"
     stroke-width="3.101"
     stroke="#000000"
     fill="none"
     stroke-linecap="round"
     id="path83" />
  <path
     d="m 219,166 c 1.93582,-0.4632 3.65551,0.79131 5,2"
     stroke-width="3.316"
     stroke="#000000"
     fill="none"
     stroke-linecap="round"
     id="path84" />
  <path
     d="m 224,168 c -0.4537,2.98325 1.02891,6.35611 -1,9"
     stroke-width="3.647"
     stroke="#000000"
     fill="none"
     stroke-linecap="round"
     id="path85" />
  <path
     d="m 223,177 c -1.23026,-3.88395 -1.65597,-7.95895 -2,-12"
     stroke-width="3.845"
     stroke="#000000"
     fill="none"
     stroke-linecap="round"
     id="path86" />
  <path
     d="m 221,165 c 0.0258,-2.00002 -0.33707,-4.00807 0,-6"
     stroke-width="3.426"
     stroke="#000000"
     fill="none"
     stroke-linecap="round"
     id="path87" />
  <path
     d="m 221,159 c -0.27422,-2.32127 -0.33554,-4.68103 0,-7"
     stroke-width="3.214"
     stroke="#000000"
     fill="none"
     stroke-linecap="round"
     id="path88" />
  <path
     d="m 221,152 c 1.75317,2.70017 2.19438,5.94989 3,9"
     stroke-width="3.584"
     stroke="#000000"
     fill="none"
     stroke-linecap="round"
     id="path89" />
  <path
     d="m 224,161 c -1.43536,2.20389 -0.22924,4.68776 0,7"
     stroke-width="3.686"
     stroke="#000000"
     fill="none"
     stroke-linecap="round"
     id="path90" />
  <path
     d="m 224,168 c 3.85922,-2.28971 8.90426,-2.44111 12,-6"
     stroke-width="3.816"
     stroke="#000000"
     fill="none"
     stroke-linecap="round"
     id="path91" />
  <path
     d="m 236,162 c -2.55668,-0.47821 -3.7534,2.46843 -6,3"
     stroke-width="4.053"
     stroke="#000000"
     fill="none"
     stroke-linecap="round"
     id="path92" />
  <path
     d="m 230,165 c 1.38057,2.26465 3.44557,4.17216 6,5"
     stroke-width="4.098"
     stroke="#000000"
     fill="none"
     stroke-linecap="round"
     id="path93" />
  <path
     d="m 236,170 c 1.6432,0.71423 3.17209,1.79897 5,2"
     stroke-width="3.557"
     stroke="#000000"
     fill="none"
     stroke-linecap="round"
     id="path94" />
  <path
     d="m 241,172 c 1.76969,1.25092 3.97587,1.43001 6,2"
     stroke-width="3.72"
     stroke="#000000"
     fill="none"
     stroke-linecap="round"
     id="path95" />
  <path
     d="m 247,174 c 1.6415,-0.48793 3.51053,0.0359 5,-1"
     stroke-width="3.535"
     stroke="#000000"
     fill="none"
     stroke-linecap="round"
     id="path96" />
  <path
     d="m 252,173 c 2.63075,-0.5761 5.32346,-0.76492 8,-1"
     stroke-width="3.606"
     stroke="#000000"
     fill="none"
     stroke-linecap="round"
     id="path97" />
  <path
     d="m 260,172 c 2.99978,0.01 6.00373,-0.25005 9,0"
     stroke-width="3.065"
     stroke="#000000"
     fill="none"
     stroke-linecap="round"
     id="path98" />
  <path
     d="m 269,172 c 4.32352,-0.4706 8.66799,0.0102 13,0"
     stroke-width="2.685"
     stroke="#000000"
     fill="none"
     stroke-linecap="round"
     id="path99" />
  <path
     d="m 282,172 c 4.34184,0.5993 8.74787,0.87187 13,2"
     stroke-width="2.531"
     stroke="#000000"
     fill="none"
     stroke-linecap="round"
     id="path100" />
</svg>
